# xmcd
#
# Track frame offsets:
#	183
#	15103
#	28710
#	41863
#	56555
#	69545
#	83385
#	97493
#	112148
#	125383
#	140183
#	154668
#	166650
#	181585
#	194145
#	207785
#	221313
#	236105
#	250228
#	263803
#
# Disc length: 3707 seconds
# Revision: 2
# Processed by: cddbd v1.5.2PL0 Copyright (c) Steve Scherf et al.
# Submitted via: dBpowerAMP V12.0
#
DISCID=1b0e7914
DTITLE=Various Artist - The Piano Blues, Paramount Vol.1 1928-1932
DYEAR=1991
DGENRE=Blues
TTITLE0=Charlie Spand - Moanin' The Blues 
TTITLE1=Blind Leroy Garnett - Chain 'em Down
TTITLE2=Little Brother - No Special Rider
TTITLE3=Wesley Wallace - Fanny Lee Blues
TTITLE4=Louise Johnson - By the Sun and the Stars
TTITLE5=Will Ezell - Pitchin' Boogie
TTITLE6=Blind Leroy Garnett - Louisiana Glide
TTITLE7=Charlie Spand - Hastings Street
TTITLE8=Skip James - If You Haven't Any Hay
TTITLE9=Jabo Williams - Fat Mama Blues
TTITLE10=James Wiggins - Evil Woman Blues
TTITLE11=Lonnie Clark - Down in Tennessee
TTITLE12=Charles Avery - Dearborn St. Breakdown
TTITLE13=Charlie Spand - Mississippi Blues
TTITLE14=Will Ezell - Heifer Dust
TTITLE15=Little Brother - Vicksburg Blues
TTITLE16=Wesley Wallace - No.29
TTITLE17=James Wiggins - Forty-Four Blues 
TTITLE18=Henry Brown - Henry Brown Blues
TTITLE19=Louise Johnson - All Night Long Blues
EXTD=
EXTT0=
EXTT1=
EXTT2=
EXTT3=
EXTT4=
EXTT5=
EXTT6=
EXTT7=
EXTT8=
EXTT9=
EXTT10=
EXTT11=
EXTT12=
EXTT13=
EXTT14=
EXTT15=
EXTT16=
EXTT17=
EXTT18=
EXTT19=
PLAYORDER=
